<svg width="54" height="21" viewBox="0 0 54 21" fill="none" xmlns="http://www.w3.org/2000/svg">
<path d="M16.2841 16.2563C18.9721 16.2563 20.5688 14.1543 20.5688 10.5947C20.5688 9.25439 20.3124 8.12646 19.8217 7.25488C19.1112 5.8999 17.8881 5.16748 16.3427 5.16748C14.0429 5.16748 12.4169 6.71289 12.4169 8.88086C12.4169 10.917 13.8817 12.3965 15.8959 12.3965C17.1337 12.3965 18.1371 11.8179 18.6352 10.8145H18.6571C18.6571 10.8145 18.6864 10.8145 18.6938 10.8145C18.7084 10.8145 18.7597 10.8145 18.7597 10.8145C18.7597 13.2314 17.8441 14.6743 16.2987 14.6743C15.3905 14.6743 14.6874 14.1763 14.4457 13.3779H12.5634C12.8783 15.1138 14.3505 16.2563 16.2841 16.2563ZM16.35 10.895C15.1342 10.895 14.2699 10.0308 14.2699 8.82227C14.2699 7.64307 15.1781 6.74219 16.3573 6.74219C17.5365 6.74219 18.4447 7.65771 18.4447 8.85156C18.4447 10.0308 17.5585 10.895 16.35 10.895ZM23.5866 14.8794C24.2824 14.8794 24.7585 14.3813 24.7585 13.7222C24.7585 13.0557 24.2824 12.5649 23.5866 12.5649C22.8981 12.5649 22.4147 13.0557 22.4147 13.7222C22.4147 14.3813 22.8981 14.8794 23.5866 14.8794ZM23.5866 9.38623C24.2824 9.38623 24.7585 8.89551 24.7585 8.23633C24.7585 7.56982 24.2824 7.0791 23.5866 7.0791C22.8981 7.0791 22.4147 7.56982 22.4147 8.23633C22.4147 8.89551 22.8981 9.38623 23.5866 9.38623ZM31.7607 16H33.5698V14.0298H34.998V12.4331H33.5698V5.43115H30.9038C29.0361 8.24365 27.5493 10.5947 26.5972 12.3452V14.0298H31.7607V16ZM28.3477 12.3672C29.5781 10.1992 30.6768 8.46338 31.6875 6.96924H31.79V12.4771H28.3477V12.3672ZM39.0267 16H40.9163V5.43115H39.034L36.2728 7.36475V9.18115L38.9021 7.33545H39.0267V16Z" fill="white"/>
</svg>
