<svg width="18" height="11" viewBox="0 0 18 11" fill="none" xmlns="http://www.w3.org/2000/svg">
<path fill-rule="evenodd" clip-rule="evenodd" d="M16.6665 0.333374H15.6665C15.1142 0.333374 14.6665 0.78109 14.6665 1.33338V10C14.6665 10.5523 15.1142 11 15.6665 11H16.6665C17.2188 11 17.6665 10.5523 17.6665 10V1.33338C17.6665 0.78109 17.2188 0.333374 16.6665 0.333374ZM10.9998 2.66671H11.9998C12.5521 2.66671 12.9998 3.11442 12.9998 3.66671V10C12.9998 10.5523 12.5521 11 11.9998 11H10.9998C10.4476 11 9.99985 10.5523 9.99985 10V3.66671C9.99985 3.11442 10.4476 2.66671 10.9998 2.66671ZM7.33316 5.00004H6.33316C5.78088 5.00004 5.33316 5.44776 5.33316 6.00004V10C5.33316 10.5523 5.78088 11 6.33316 11H7.33316C7.88545 11 8.33316 10.5523 8.33316 10V6.00004C8.33316 5.44776 7.88545 5.00004 7.33316 5.00004ZM2.6665 7.00004H1.6665C1.11422 7.00004 0.666504 7.44776 0.666504 8.00004V10C0.666504 10.5523 1.11422 11 1.6665 11H2.6665C3.21879 11 3.6665 10.5523 3.6665 10V8.00004C3.6665 7.44776 3.21879 7.00004 2.6665 7.00004Z" fill="black"/>
</svg>
