<svg width="25" height="12" viewBox="0 0 25 12" fill="none" xmlns="http://www.w3.org/2000/svg">
<g opacity="0.35">
<path fill-rule="evenodd" clip-rule="evenodd" d="M19.3333 1H2.66667C1.74619 1 1 1.74619 1 2.66666V8.66667C1 9.58714 1.74619 10.3333 2.66667 10.3333H19.3333C20.2538 10.3333 21 9.58714 21 8.66667V2.66667C21 1.74619 20.2538 1 19.3333 1ZM2.66667 0C1.19391 0 0 1.19391 0 2.66666V8.66667C0 10.1394 1.19391 11.3333 2.66667 11.3333H19.3333C20.8061 11.3333 22 10.1394 22 8.66667V2.66667C22 1.19391 20.8061 0 19.3333 0H2.66667Z" fill="black"/>
<path d="M23 3.66669V7.66669C23.8047 7.32791 24.328 6.53982 24.328 5.66669C24.328 4.79355 23.8047 4.00546 23 3.66669Z" fill="black"/>
</g>
<path d="M2 3.33333C2 2.59695 2.59695 2 3.33333 2H18.6667C19.403 2 20 2.59695 20 3.33333V8C20 8.73638 19.403 9.33333 18.6667 9.33333H3.33333C2.59695 9.33333 2 8.73638 2 8V3.33333Z" fill="black"/>
</svg>
