<svg width="25" height="12" viewBox="0 0 25 12" fill="none" xmlns="http://www.w3.org/2000/svg">
<g opacity="0.35">
<path fill-rule="evenodd" clip-rule="evenodd" d="M19.3333 1.33331H2.66667C1.74619 1.33331 1 2.0795 1 2.99998V8.99998C1 9.92045 1.74619 10.6666 2.66667 10.6666H19.3333C20.2538 10.6666 21 9.92045 21 8.99998V2.99998C21 2.0795 20.2538 1.33331 19.3333 1.33331ZM2.66667 0.333313C1.19391 0.333313 0 1.52722 0 2.99998V8.99998C0 10.4727 1.19391 11.6666 2.66667 11.6666H19.3333C20.8061 11.6666 22 10.4727 22 8.99998V2.99998C22 1.52722 20.8061 0.333313 19.3333 0.333313H2.66667Z" fill="white"/>
<path d="M23 4V8C23.8047 7.66122 24.328 6.87313 24.328 6C24.328 5.12687 23.8047 4.33878 23 4Z" fill="white"/>
</g>
<path d="M2 3.66665C2 2.93027 2.59695 2.33331 3.33333 2.33331H18.6667C19.403 2.33331 20 2.93027 20 3.66665V8.33331C20 9.06969 19.403 9.66665 18.6667 9.66665H3.33333C2.59695 9.66665 2 9.06969 2 8.33331V3.66665Z" fill="white"/>
</svg>
