<svg width="29" height="12" viewBox="0 0 29 12" fill="none" xmlns="http://www.w3.org/2000/svg">
<path d="M4.28408 11.923C6.97207 11.923 8.56875 9.82098 8.56875 6.26141C8.56875 4.92108 8.3124 3.79315 7.82168 2.92157C7.11123 1.56659 5.88809 0.834167 4.34268 0.834167C2.04287 0.834167 0.416895 2.37958 0.416895 4.54755C0.416895 6.58368 1.88174 8.06317 3.8959 8.06317C5.13369 8.06317 6.13711 7.48456 6.63516 6.48114H6.65713C6.65713 6.48114 6.68643 6.48114 6.69375 6.48114C6.7084 6.48114 6.75967 6.48114 6.75967 6.48114C6.75967 8.89813 5.84414 10.341 4.29873 10.341C3.39053 10.341 2.6874 9.84296 2.4457 9.04462H0.563379C0.878321 10.7805 2.35049 11.923 4.28408 11.923ZM4.35 6.56171C3.13418 6.56171 2.26992 5.69745 2.26992 4.48895C2.26992 3.30975 3.17813 2.40887 4.35732 2.40887C5.53652 2.40887 6.44473 3.3244 6.44473 4.51825C6.44473 5.69745 5.5585 6.56171 4.35 6.56171ZM11.5866 10.5461C12.2824 10.5461 12.7585 10.048 12.7585 9.38885C12.7585 8.72235 12.2824 8.23163 11.5866 8.23163C10.8981 8.23163 10.4147 8.72235 10.4147 9.38885C10.4147 10.048 10.8981 10.5461 11.5866 10.5461ZM11.5866 5.05292C12.2824 5.05292 12.7585 4.56219 12.7585 3.90302C12.7585 3.23651 12.2824 2.74579 11.5866 2.74579C10.8981 2.74579 10.4147 3.23651 10.4147 3.90302C10.4147 4.56219 10.8981 5.05292 11.5866 5.05292ZM19.7607 11.6667H21.5698V9.69647H22.998V8.09979H21.5698V1.09784H18.9038C17.0361 3.91034 15.5493 6.26141 14.5972 8.0119V9.69647H19.7607V11.6667ZM16.3477 8.03387C17.5781 5.86591 18.6768 4.13007 19.6875 2.63593H19.79V8.14374H16.3477V8.03387ZM27.0267 11.6667H28.9163V1.09784H27.034L24.2728 3.03143V4.84784L26.9021 3.00214H27.0267V11.6667Z" fill="black"/>
</svg>
