<svg width="16" height="12" viewBox="0 0 16 12" fill="none" xmlns="http://www.w3.org/2000/svg">
<path fill-rule="evenodd" clip-rule="evenodd" d="M8.32997 3.2747C10.5459 3.2748 12.677 4.12624 14.283 5.65304C14.4039 5.77091 14.5972 5.76942 14.7163 5.6497L15.8723 4.48304C15.9326 4.42231 15.9662 4.34006 15.9657 4.25448C15.9652 4.1689 15.9306 4.08705 15.8696 4.02704C11.6545 -0.0125114 5.00473 -0.0125114 0.789632 4.02704C0.728573 4.087 0.693929 4.16883 0.693366 4.25441C0.692803 4.33999 0.726368 4.42227 0.786632 4.48304L1.94297 5.6497C2.06199 5.7696 2.25544 5.77109 2.3763 5.65304C3.98245 4.12614 6.11385 3.2747 8.32997 3.2747ZM8.32995 7.07037C9.54744 7.07029 10.7215 7.52283 11.624 8.34004C11.746 8.45602 11.9383 8.4535 12.0573 8.33437L13.212 7.1677C13.2728 7.10651 13.3065 7.02349 13.3056 6.93723C13.3047 6.85096 13.2693 6.76865 13.2073 6.7087C10.4591 4.15232 6.20315 4.15232 3.45495 6.7087C3.39288 6.76865 3.35746 6.851 3.35664 6.93729C3.35583 7.02359 3.38969 7.1066 3.45062 7.1677L4.60495 8.33437C4.72394 8.4535 4.91622 8.45602 5.03829 8.34004C5.94016 7.52337 7.11327 7.07087 8.32995 7.07037ZM10.643 9.62419C10.6447 9.7107 10.6107 9.7941 10.549 9.8547L8.55162 11.8704C8.49307 11.9296 8.41325 11.9629 8.32996 11.9629C8.24667 11.9629 8.16684 11.9296 8.10829 11.8704L6.11062 9.8547C6.04891 9.79405 6.01496 9.71062 6.01679 9.62412C6.01862 9.53761 6.05607 9.45569 6.12029 9.3977C7.39586 8.31882 9.26405 8.31882 10.5396 9.3977C10.6038 9.45574 10.6412 9.53768 10.643 9.62419Z" fill="black"/>
</svg>
