<svg width="16" height="12" viewBox="0 0 16 12" fill="none" xmlns="http://www.w3.org/2000/svg">
<path fill-rule="evenodd" clip-rule="evenodd" d="M8.32997 3.27476C10.5459 3.27486 12.677 4.1263 14.283 5.6531C14.4039 5.77097 14.5972 5.76948 14.7163 5.64976L15.8723 4.4831C15.9326 4.42237 15.9662 4.34012 15.9657 4.25454C15.9652 4.16896 15.9306 4.08711 15.8696 4.0271C11.6545 -0.0124504 5.00473 -0.0124504 0.789632 4.0271C0.728573 4.08707 0.693929 4.16889 0.693366 4.25447C0.692803 4.34005 0.726368 4.42233 0.786632 4.4831L1.94297 5.64976C2.06199 5.76967 2.25544 5.77115 2.3763 5.6531C3.98245 4.1262 6.11385 3.27476 8.32997 3.27476ZM8.32995 7.07043C9.54744 7.07036 10.7215 7.52289 11.624 8.3401C11.746 8.45608 11.9383 8.45356 12.0573 8.33443L13.212 7.16776C13.2728 7.10657 13.3065 7.02355 13.3056 6.93729C13.3047 6.85102 13.2693 6.76871 13.2073 6.70876C10.4591 4.15238 6.20315 4.15238 3.45495 6.70876C3.39288 6.76871 3.35746 6.85106 3.35664 6.93736C3.35583 7.02365 3.38969 7.10666 3.45062 7.16776L4.60495 8.33443C4.72394 8.45356 4.91622 8.45608 5.03829 8.3401C5.94016 7.52343 7.11327 7.07093 8.32995 7.07043ZM10.643 9.62425C10.6447 9.71076 10.6107 9.79416 10.549 9.85476L8.55162 11.8704C8.49307 11.9297 8.41325 11.963 8.32996 11.963C8.24667 11.963 8.16684 11.9297 8.10829 11.8704L6.11062 9.85476C6.04891 9.79411 6.01496 9.71068 6.01679 9.62418C6.01862 9.53767 6.05607 9.45575 6.12029 9.39777C7.39586 8.31888 9.26405 8.31888 10.5396 9.39777C10.6038 9.4558 10.6412 9.53774 10.643 9.62425Z" fill="white"/>
</svg>
